<?xml version="1.0" standalone="no"?>
<!DOCTYPE svg>
<svg version="1.0" xmlns="http://www.w3.org/2000/svg"
 width="60px" height="60px" viewBox="0 0 512.000000 512.000000"
 preserveAspectRatio="xMidYMid meet">

<g transform="translate(0.000000,512.000000) scale(0.100000,-0.100000)"
fill="gray" stroke="none">
<path d="M2822 5099 c-211 -44 -431 -137 -616 -259 -432 -286 -863 -839 -1166
-1500 -312 -679 -489 -1426 -550 -2325 -13 -178 -16 -848 -5 -950 l7 -65 43 0
43 0 43 78 c143 262 361 501 591 648 200 128 399 198 654 229 255 32 422 57
594 91 1153 227 1982 754 2340 1488 208 424 252 849 134 1285 -171 633 -695
1129 -1346 1275 -110 25 -129 26 -394 25 -237 0 -293 -3 -372 -20z m617 -84
c719 -105 1294 -657 1427 -1370 29 -151 26 -483 -4 -618 -149 -672 -625 -1200
-1398 -1555 -425 -194 -931 -324 -1566 -402 -355 -43 -595 -135 -847 -325
-112 -85 -280 -255 -369 -373 -34 -46 -62 -81 -62 -78 0 25 68 322 100 437
126 449 342 905 605 1278 41 58 75 116 75 128 0 27 -42 57 -68 49 -28 -9 -183
-237 -306 -450 -141 -244 -278 -555 -367 -831 -75 -233 -79 -243 -74 -185 3
25 7 115 10 200 23 665 162 1386 380 1985 330 904 886 1651 1446 1940 164 85
375 152 545 174 115 14 357 12 473 -4z"/>
<path d="M2985 4829 c-332 -48 -623 -197 -870 -444 -253 -253 -510 -634 -716
-1060 -98 -203 -179 -402 -186 -456 -5 -32 -2 -40 21 -54 43 -28 65 -5 110
116 53 145 156 370 239 524 81 151 151 262 143 225 -28 -113 -38 -236 -33
-395 6 -181 23 -282 72 -430 242 -722 992 -1154 1738 -1000 123 26 234 66 367
131 612 303 944 985 805 1656 -124 603 -613 1074 -1223 1179 -122 20 -352 24
-467 8z m315 -106 c0 -5 -7 -55 -15 -113 -42 -297 -157 -558 -348 -795 -31
-38 -57 -79 -57 -90 0 -12 52 -72 137 -157 116 -116 143 -138 168 -138 26 0
89 59 497 467 l468 468 37 -38 38 -37 -200 -202 c-110 -112 -319 -323 -465
-471 -190 -192 -266 -275 -268 -294 -3 -22 18 -48 135 -165 101 -101 144 -138
162 -138 14 0 51 22 91 54 248 201 543 324 863 361 l57 6 0 -53 0 -54 -130
-22 c-262 -43 -497 -147 -707 -314 -50 -39 -63 -55 -63 -77 0 -22 48 -76 257
-291 l257 -263 -38 -33 c-22 -19 -43 -34 -46 -34 -4 0 -119 115 -255 256 -302
311 -280 302 -386 154 -152 -212 -254 -472 -284 -721 l-6 -56 -47 5 c-26 2
-49 6 -51 8 -8 7 21 192 45 284 51 198 150 407 265 560 81 108 88 120 82 140
-3 8 -67 77 -141 153 -104 104 -143 137 -162 137 -20 0 -121 -96 -480 -455
-250 -250 -460 -455 -465 -455 -6 0 -26 16 -45 35 l-34 35 462 463 c291 291
462 470 462 482 0 27 -279 305 -306 305 -11 0 -47 -21 -80 -46 -236 -186 -493
-298 -779 -339 -55 -8 -106 -15 -112 -15 -9 0 -13 18 -13 55 0 54 0 55 30 55
54 0 227 38 333 74 224 74 517 256 517 319 0 13 -89 110 -260 281 l-260 262
37 37 38 37 260 -260 c208 -207 266 -260 287 -260 67 0 262 310 337 535 33
101 71 274 71 329 l0 36 55 0 c30 0 55 -3 55 -7z m528 -138 c60 -30 137 -75
172 -101 l63 -46 -439 -439 -438 -438 -86 82 c-47 45 -86 84 -88 88 -1 3 18
31 43 63 142 184 287 497 320 694 4 27 12 42 22 42 25 0 171 -39 224 -60 l50
-20 -15 22 c-23 33 -21 109 5 142 11 14 29 26 39 26 10 0 68 -25 128 -55z
m-799 -117 c-42 -151 -105 -285 -202 -426 l-50 -73 -159 158 c-87 87 -158 160
-157 163 1 10 96 75 166 112 92 50 217 96 323 118 47 10 88 19 92 19 4 1 -2
-32 -13 -71z m1328 -345 c100 -152 158 -281 199 -441 36 -143 38 -138 -51
-145 -271 -23 -579 -145 -825 -328 l-83 -61 -88 88 -89 89 437 437 c241 241
440 438 443 438 3 0 28 -35 57 -77z m-1884 -431 c-92 -62 -241 -134 -351 -171
-51 -17 -100 -31 -108 -31 -20 0 -18 30 12 145 27 109 92 254 156 353 l41 63
158 -157 158 -158 -66 -44z m390 -280 l87 -87 -359 -359 -359 -359 -47 71
c-84 130 -151 296 -178 439 -6 31 -5 33 31 39 177 32 458 154 627 272 55 39
102 71 105 71 3 1 45 -38 93 -87z m1727 -226 c0 -39 -22 -153 -46 -235 l-15
-53 -47 5 c-37 4 -53 12 -79 41 -20 21 -33 47 -34 63 0 19 -10 2 -29 -53 -15
-45 -42 -111 -59 -147 -31 -66 -121 -207 -131 -207 -3 0 -76 71 -163 158
l-158 159 73 50 c181 123 366 199 583 238 106 20 105 20 105 -19z m-1261 -239
c32 -36 33 -38 17 -60 -161 -220 -277 -463 -326 -688 l-13 -56 -63 13 c-135
29 -283 90 -405 169 l-72 47 358 358 359 359 56 -52 c30 -29 70 -69 89 -90z
m559 -600 c-42 -35 -162 -100 -242 -133 -77 -31 -275 -80 -295 -72 -30 11 110
347 199 478 l42 62 159 -158 160 -159 -23 -18z"/>
<path d="M1935 1529 c-216 -21 -504 -103 -537 -153 -16 -23 -7 -56 17 -72 24
-16 28 -15 83 9 121 54 309 97 497 113 91 8 105 15 105 55 0 29 -32 60 -60 58
-8 -1 -55 -6 -105 -10z"/>
<path d="M557 3372 c-34 -37 -162 -343 -229 -546 -46 -140 -99 -340 -128 -481
-42 -204 -86 -557 -74 -590 17 -42 89 -37 98 7 3 13 10 77 16 143 41 425 178
930 356 1314 48 103 55 145 25 161 -28 15 -46 12 -64 -8z"/>
<path d="M3635 1069 c-292 -223 -853 -393 -1485 -449 -69 -6 -130 -16 -137
-22 -16 -13 -17 -60 -1 -76 16 -16 78 -15 256 3 379 40 787 137 1057 252 175
75 408 216 420 254 9 27 -20 69 -48 69 -12 0 -40 -14 -62 -31z"/>
</g>
</svg>
